<?xml version="1.0" encoding="utf-8"?>
<!-- Generator: Adobe Illustrator 17.1.0, SVG Export Plug-In . SVG Version: 6.00 Build 0)  -->
<!DOCTYPE svg PUBLIC "-//W3C//DTD SVG 1.1//EN" "http://www.w3.org/Graphics/SVG/1.1/DTD/svg11.dtd">
<svg version="1.1" id="Layer_1" xmlns="http://www.w3.org/2000/svg" xmlns:xlink="http://www.w3.org/1999/xlink" x="0px" y="0px"
	 viewBox="0 0 75 20" enable-background="new 0 0 75 20" xml:space="preserve">
<g id="exclude_box">
	<g>
		<g opacity="0.75">
			<path fill="#F9F9FA" d="M3,13.3L0.5,7.4c0,0,0-0.1,0-0.1c0-0.1,0-0.2,0.1-0.2C0.6,7,0.7,7,0.8,7h1.9C2.8,7,2.8,7,2.9,7
				c0,0,0.1,0.1,0.1,0.1l1.9,4.2l1.8-4.2c0-0.1,0.1-0.1,0.1-0.1c0,0,0.1,0,0.1,0h1.9c0.1,0,0.1,0,0.2,0.1C9,7.2,9.1,7.3,9.1,7.4
				c0,0.1,0,0.1,0,0.1l-2.5,6c-0.1,0.1-0.1,0.2-0.2,0.4C6.2,13.9,6.1,14,6,14H4.8H3.6c-0.1,0-0.2-0.1-0.4-0.2
				C3.1,13.6,3.1,13.4,3,13.3z"/>
			<path fill="#F9F9FA" d="M16.3,13.6c0-0.1,0-0.1,0.1-0.2l2.3-3.1l-2.2-2.8c0-0.1-0.1-0.1-0.1-0.2c0-0.1,0-0.2,0.1-0.2
				C16.6,7,16.6,7,16.7,7h2c0.1,0,0.2,0,0.3,0.1l1,1.4l1-1.4C21,7.1,21,7,21.1,7c0,0,0.1,0,0.1,0h2c0.1,0,0.2,0,0.2,0.1
				c0.1,0.1,0.1,0.1,0.1,0.2c0,0.1,0,0.1-0.1,0.2l-2.3,2.8l2.4,3.1c0,0.1,0.1,0.1,0.1,0.2c0,0.1,0,0.2-0.1,0.2
				c-0.1,0.1-0.1,0.1-0.2,0.1h-2.1c-0.1,0-0.1,0-0.1-0.1c-0.1,0-0.1-0.1-0.1-0.1l-0.9-1.3L19,13.7c-0.1,0.1-0.2,0.2-0.3,0.2h-2.2
				c-0.1,0-0.2,0-0.2-0.1C16.3,13.8,16.3,13.7,16.3,13.6z"/>
			<path fill="#F9F9FA" d="M27.5,12.7c0-0.1,0.1-0.3,0.2-0.4l0.4-0.5c0.1-0.1,0.2-0.3,0.3-0.3c0.1-0.1,0.1-0.1,0.2-0.1
				c0.1,0,0.1,0,0.2,0.1c0.1,0,0.2,0.1,0.4,0.2c0,0,0.2,0.1,0.5,0.4s0.7,0.3,1.2,0.3c0.2,0,0.3-0.1,0.4-0.1c0.1-0.1,0.1-0.2,0.1-0.3
				c0-0.2-0.1-0.3-0.2-0.4c-0.2-0.1-0.4-0.2-0.7-0.2h0c-0.6-0.1-1.1-0.3-1.4-0.5c-0.3-0.2-0.6-0.4-0.7-0.6c-0.1-0.3-0.2-0.6-0.3-0.9
				c0-0.4,0.1-0.9,0.3-1.2c0.2-0.4,0.5-0.6,0.9-0.9c0.4-0.2,0.9-0.3,1.4-0.3c0.4,0,0.8,0.1,1.2,0.2c0.3,0.1,0.6,0.2,0.9,0.4
				s0.5,0.3,0.6,0.5c0.1,0.1,0.1,0.2,0.1,0.3c0,0.1,0,0.1-0.1,0.2c-0.1,0.1-0.1,0.2-0.3,0.3l-0.3,0.3C32.8,9,32.7,9,32.7,9.1
				c-0.1,0-0.1,0.1-0.1,0.1c-0.1,0-0.1,0-0.2-0.1c-0.1,0-0.1-0.1-0.2-0.1c-0.1,0-0.1-0.1-0.2-0.1c-0.5-0.3-0.9-0.4-1.2-0.4
				c-0.2,0-0.4,0.1-0.5,0.1C30.1,8.6,30,8.8,30,8.9s0.1,0.3,0.2,0.4c0.1,0.1,0.3,0.2,0.5,0.2c1,0.1,1.7,0.4,2.1,0.9
				c0.5,0.4,0.7,0.9,0.7,1.4c0,0.4-0.1,0.8-0.4,1.2c-0.2,0.4-0.6,0.7-1,0.9c-0.4,0.2-0.9,0.4-1.5,0.4c-0.9,0-1.8-0.3-2.7-0.9
				C27.7,13.1,27.5,12.9,27.5,12.7z"/>
			<path fill="#F9F9FA" d="M36.7,12.6l-2.3,0c-0.1,0-0.2-0.1-0.2-0.2l0-0.9c0-0.1,0-0.1,0.1-0.2c0-0.1,0.1-0.1,0.1-0.1h2.1
				c0.3,0,0.5-0.1,0.7-0.2c0.2-0.1,0.2-0.4,0.3-0.6c0-0.6-0.3-0.7-0.9-0.8l-2.2,0c-0.1,0-0.1,0-0.1-0.1c0-0.1-0.1-0.1-0.1-0.2l0-0.9
				c0-0.1,0-0.1,0.1-0.2c0,0,0.1-0.1,0.1-0.1l1,0c0.6,0,1,0,1.1,0c0.1,0,0.2,0,0.2,0c0.4,0,0.7,0.1,1,0.2c0.3,0.1,0.6,0.4,0.8,0.7
				c0.2,0.3,0.3,0.8,0.3,1.3c0,0.5-0.1,0.9-0.3,1.2c-0.2,0.3-0.5,0.6-0.8,0.7C37.5,12.6,37.1,12.6,36.7,12.6z"/>
			<path fill="#F9F9FA" d="M43.1,13.4c-0.1-0.5-0.2-0.8-0.5-0.9c-0.2-0.2-0.5-0.3-0.9-0.3c-0.1,0-0.1,0-0.2,0c-0.1,0-0.1,0-0.2,0
				l0,0v1.3c0,0.1,0,0.2,0,0.3c0,0.1-0.1,0.1-0.2,0.2C41.1,14,41,14,40.7,14h-0.9c-0.2,0-0.4,0-0.5-0.1c-0.1-0.1-0.2-0.2-0.2-0.4
				l0-2.7V7.3c0-0.1,0.1-0.2,0.1-0.3C39.4,7,39.5,7,39.6,7h2.3c1,0,1.7,0.2,2.2,0.5c0.5,0.4,0.7,0.9,0.8,1.6c0,0.1,0,0.1,0,0.1
				c0,0,0,0.1,0,0.1v0.2c0,0.4-0.1,0.7-0.3,0.9c-0.2,0.2-0.4,0.4-0.7,0.6l0,0c0.3,0.2,0.6,0.4,0.8,0.7c0.2,0.3,0.3,0.6,0.4,0.9
				c0.1,0.3,0.1,0.6,0.1,0.9c0,0.1,0,0.2-0.1,0.3C45,14,44.9,14,44.7,14h-1.2c-0.2,0-0.3,0-0.3-0.1c-0.1-0.1-0.1-0.2-0.1-0.3
				C43.1,13.5,43.1,13.4,43.1,13.4z M41.6,10.2c0.3,0,0.6-0.1,0.9-0.2c0.3-0.1,0.4-0.4,0.4-0.8c0-0.3-0.1-0.5-0.3-0.6
				c-0.2-0.1-0.4-0.2-0.7-0.2H41v0.1v1.7h0.1h0H41.6z"/>
			<path fill="#F9F9FA" d="M45.9,10.5c0-0.7,0.2-1.3,0.5-1.9c0.3-0.6,0.8-1,1.3-1.3c0.6-0.3,1.1-0.5,1.8-0.5c0.1,0,0.2,0,0.3,0
				c0.4,0,0.7,0.1,0.9,0.1l0.1,0c0.1,0,0.1,0,0.2,0.1c0,0.1,0.1,0.1,0.1,0.2c0,0.1,0,0.1,0,0.2l-0.4,0.9c-0.1,0.3-0.3,0.4-0.5,0.4
				c-0.6,0-1,0.1-1.3,0.3c-0.3,0.2-0.6,0.6-0.6,1c0,0.1-0.1,0.3-0.1,0.4c0,0.4,0.1,0.7,0.3,0.9c0.2,0.3,0.5,0.5,0.9,0.6
				c0.2,0,0.4,0.1,0.6,0.1c0.4,0,0.8-0.1,1-0.3c0.3-0.2,0.4-0.5,0.5-0.8h-0.6c-0.1,0-0.2,0-0.3-0.1c-0.1-0.1-0.1-0.2-0.1-0.3V9.3
				c0-0.1,0-0.2,0.1-0.3c0.1-0.1,0.1-0.1,0.3-0.1H53c0.1,0,0.2,0,0.3,0.1c0.1,0.1,0.1,0.2,0.1,0.3l0,0.7c0,0.1,0,0.2,0,0.4
				c0,0.2,0,0.4,0,0.6c-0.1,0.6-0.3,1.1-0.6,1.6c-0.4,0.5-0.8,0.9-1.3,1.1c-0.5,0.3-1.1,0.4-1.7,0.4c-0.6,0-1.3-0.2-1.9-0.5
				c-0.6-0.3-1.1-0.8-1.4-1.4C46,11.7,45.9,11.1,45.9,10.5z"/>
			<path fill="#F9F9FA" d="M56.4,8.7v0.8h2.8c0.1,0,0.2,0,0.3,0.1c0.1,0.1,0.1,0.2,0.1,0.3v0.9c0,0.1,0,0.2-0.1,0.3
				s-0.2,0.1-0.3,0.1h-2.8v0.9h3c0.1,0,0.2,0,0.3,0.1c0.1,0.1,0.1,0.2,0.1,0.3v0.9c0,0.1,0,0.2-0.1,0.3c-0.1,0.1-0.2,0.1-0.3,0.1
				h-4.7c-0.1,0-0.2,0-0.3-0.1c-0.1-0.1-0.1-0.2-0.1-0.3v0v-0.8V8.3V7.4c0-0.1,0-0.2,0.1-0.3C54.4,7,54.5,7,54.6,7h4.7
				c0.1,0,0.2,0,0.3,0.1c0.1,0.1,0.1,0.2,0.1,0.3v0.9c0,0.1,0,0.2-0.1,0.3s-0.2,0.1-0.3,0.1L56.4,8.7L56.4,8.7z"/>
			<path fill="#F9F9FA" d="M65,13.4c-0.1-0.5-0.2-0.8-0.5-0.9c-0.2-0.2-0.5-0.3-0.9-0.3c-0.1,0-0.1,0-0.2,0c-0.1,0-0.1,0-0.2,0l0,0
				v1.3c0,0.1,0,0.2,0,0.3c0,0.1-0.1,0.1-0.2,0.2C63,14,62.8,14,62.6,14h-0.9c-0.2,0-0.4,0-0.5-0.1C61,13.8,61,13.7,61,13.5l0-2.7
				V7.3c0-0.1,0.1-0.2,0.1-0.3C61.2,7,61.4,7,61.5,7h2.3c1,0,1.7,0.2,2.2,0.5c0.5,0.4,0.7,0.9,0.8,1.6c0,0.1,0,0.1,0,0.1
				c0,0,0,0.1,0,0.1v0.2c0,0.4-0.1,0.7-0.3,0.9c-0.2,0.2-0.4,0.4-0.7,0.6l0,0c0.3,0.2,0.6,0.4,0.8,0.7c0.2,0.3,0.3,0.6,0.4,0.9
				c0.1,0.3,0.1,0.6,0.1,0.9c0,0.1,0,0.2-0.1,0.3C66.9,14,66.8,14,66.6,14h-1.2c-0.2,0-0.3,0-0.3-0.1C65,13.8,65,13.7,65,13.6
				C65,13.5,65,13.4,65,13.4z M63.5,10.2c0.3,0,0.6-0.1,0.9-0.2c0.3-0.1,0.4-0.4,0.4-0.8c0-0.3-0.1-0.5-0.3-0.6
				c-0.2-0.1-0.4-0.2-0.7-0.2h-0.8v0.1v1.7H63h0H63.5z"/>
			<path fill="#F9F9FA" d="M69.7,13.5l0-3.1l-2.4-2.9c-0.1-0.1-0.1-0.1-0.1-0.2c0-0.1,0-0.1,0.1-0.2C67.3,7,67.4,7,67.5,7l2,0
				c0.1,0,0.1,0,0.2,0c0.1,0,0.1,0.1,0.1,0.1l1.1,1.4l1-1.4c0,0,0.1-0.1,0.1-0.1c0.1,0,0.1,0,0.2,0l2,0c0.1,0,0.2,0,0.2,0.1
				s0.1,0.1,0.1,0.2c0,0.1,0,0.1-0.1,0.2l-2.4,2.9l0,3.1c0,0.1,0,0.2-0.1,0.3c-0.1,0.1-0.2,0.1-0.3,0.1h-1.5c-0.1,0-0.2,0-0.3-0.1
				C69.7,13.7,69.7,13.6,69.7,13.5z"/>
			<path fill="#F9F9FA" d="M39.4,6.2c0-0.2,0.1-0.4,0.2-0.6c0.1-0.2,0.3-0.3,0.5-0.4c0.2-0.1,0.4-0.2,0.7-0.2s0.5,0.1,0.7,0.2
				c0.2,0.1,0.4,0.3,0.5,0.4c0.1,0.2,0.2,0.4,0.2,0.6c0,0.2-0.1,0.4-0.2,0.6c-0.1,0.2-0.3,0.3-0.5,0.4c-0.2,0.1-0.4,0.2-0.7,0.2
				s-0.5-0.1-0.7-0.2c-0.2-0.1-0.4-0.3-0.5-0.4C39.5,6.6,39.4,6.4,39.4,6.2z M41.4,6.1c0-0.1,0-0.2-0.1-0.3
				c-0.1-0.1-0.1-0.1-0.2-0.2c-0.1-0.1-0.2-0.1-0.3-0.1c-0.1,0-0.2,0-0.3,0.1s-0.2,0.1-0.2,0.2c-0.1,0.1-0.1,0.2-0.1,0.3
				s0,0.2,0.1,0.3c0.1,0.1,0.1,0.1,0.2,0.2c0.1,0.1,0.2,0.1,0.3,0.1c0.1,0,0.2,0,0.3-0.1c0.1-0.1,0.2-0.1,0.2-0.2
				C41.4,6.3,41.4,6.2,41.4,6.1z"/>
			<path fill="#F9F9FA" d="M41.5,6.2c0-0.2,0.1-0.4,0.2-0.6c0.1-0.2,0.3-0.3,0.5-0.4c0.2-0.1,0.4-0.2,0.7-0.2c0.2,0,0.5,0.1,0.7,0.2
				c0.2,0.1,0.4,0.3,0.5,0.4c0.1,0.2,0.2,0.4,0.2,0.6c0,0.2-0.1,0.4-0.2,0.6c-0.1,0.2-0.3,0.3-0.5,0.4c-0.2,0.1-0.4,0.2-0.7,0.2
				c-0.2,0-0.5-0.1-0.7-0.2c-0.2-0.1-0.4-0.3-0.5-0.4C41.5,6.6,41.5,6.4,41.5,6.2z M43.4,6.1c0-0.1,0-0.2-0.1-0.3
				c-0.1-0.1-0.1-0.1-0.2-0.2c-0.1-0.1-0.2-0.1-0.3-0.1c-0.1,0-0.2,0-0.3,0.1s-0.2,0.1-0.2,0.2c-0.1,0.1-0.1,0.2-0.1,0.3
				s0,0.2,0.1,0.3c0.1,0.1,0.1,0.1,0.2,0.2c0.1,0.1,0.2,0.1,0.3,0.1c0.1,0,0.2,0,0.3-0.1c0.1-0.1,0.2-0.1,0.2-0.2
				C43.4,6.3,43.4,6.2,43.4,6.1z"/>
			<line fill="#F9F9FA" x1="9.9" y1="9.3" x2="9.9" y2="9.3"/>
			<path fill="#F9F9FA" d="M9.9,9.2"/>
			<path fill="#F9F9FA" d="M9.9,9.3"/>
			<path fill="#F9F9FA" d="M15.3,7.1C15.2,7.1,15.1,7,15,7h-0.2l0,0v0.2h-4.3V7h-0.2c-0.1,0-0.2,0-0.3,0.1C9.9,7.2,9.9,7.3,9.9,7.4
				v0v0.4v0v0.6v0.2v0.1v4.7c0,0.1,0,0.3,0.1,0.4c0.1,0.1,0.2,0.2,0.3,0.2h1.3c0.1,0,0.3-0.1,0.3-0.2c0.1-0.1,0.2-0.3,0.2-0.4v-2.1
				h2.7c0.1,0,0.2-0.1,0.3-0.1c0.1-0.1,0.1-0.2,0.1-0.3v-0.9c0-0.1-0.1-0.3-0.1-0.3c-0.1-0.1-0.2-0.1-0.3-0.1h-2.7V8.7H15
				c0.1,0,0.3,0,0.4-0.1c0.1-0.1,0.1-0.2,0.1-0.3V7.5C15.5,7.3,15.4,7.2,15.3,7.1z M10.7,13.3h-0.6v-0.6h0.6V13.3z M10.7,12.4h-0.6
				v-0.6h0.6V12.4z M10.7,11.7h-0.6v-0.6h0.6V11.7z M10.7,10.7h-0.6v-0.6h0.6V10.7z M10.7,10h-0.6V9.4h0.6V10z M10.7,9.1h-0.6V8.5
				h0.6V9.1z M10.7,8.3h-0.6V7.8h0.6V8.3z"/>
		</g>
		<g>
			<g>
				<g>
					<path fill="#F9F9FA" d="M3,13.1L0.5,7.3c0,0,0-0.1,0-0.1c0-0.1,0-0.2,0.1-0.2c0.1-0.1,0.1-0.1,0.2-0.1h1.9c0.1,0,0.1,0,0.1,0.1
						c0,0,0.1,0.1,0.1,0.1l1.9,4.2L6.6,7c0-0.1,0.1-0.1,0.1-0.1c0,0,0.1,0,0.1,0h1.9c0.1,0,0.1,0,0.2,0.1C9,7,9.1,7.1,9.1,7.2
						c0,0.1,0,0.1,0,0.1l-2.5,6c-0.1,0.1-0.1,0.2-0.2,0.4c-0.1,0.1-0.2,0.2-0.3,0.2H4.8H3.6c-0.1,0-0.2-0.1-0.4-0.2
						C3.1,13.4,3.1,13.3,3,13.1z"/>
					<path fill="#F9F9FA" d="M16.3,13.4c0-0.1,0-0.1,0.1-0.2l2.3-3.1l-2.2-2.8c0-0.1-0.1-0.1-0.1-0.2c0-0.1,0-0.2,0.1-0.2
						c0.1-0.1,0.1-0.1,0.2-0.1h2c0.1,0,0.2,0,0.3,0.1l1,1.4l1-1.4c0,0,0.1-0.1,0.1-0.1c0,0,0.1,0,0.1,0h2c0.1,0,0.2,0,0.2,0.1
						C23.5,7,23.5,7,23.5,7.1c0,0.1,0,0.1-0.1,0.2l-2.3,2.8l2.4,3.1c0,0.1,0.1,0.1,0.1,0.2c0,0.1,0,0.2-0.1,0.2
						c-0.1,0.1-0.1,0.1-0.2,0.1h-2.1c-0.1,0-0.1,0-0.1-0.1c-0.1,0-0.1-0.1-0.1-0.1l-0.9-1.3L19,13.6c-0.1,0.1-0.2,0.2-0.3,0.2h-2.2
						c-0.1,0-0.2,0-0.2-0.1C16.3,13.6,16.3,13.5,16.3,13.4z"/>
					<path fill="#F9F9FA" d="M27.5,12.5c0-0.1,0.1-0.3,0.2-0.4l0.4-0.5c0.1-0.1,0.2-0.3,0.3-0.3c0.1-0.1,0.1-0.1,0.2-0.1
						c0.1,0,0.1,0,0.2,0.1c0.1,0,0.2,0.1,0.4,0.2c0,0,0.2,0.1,0.5,0.4c0.3,0.2,0.7,0.3,1.2,0.3c0.2,0,0.3-0.1,0.4-0.1
						c0.1-0.1,0.1-0.2,0.1-0.3c0-0.2-0.1-0.3-0.2-0.4C31,11.1,30.7,11,30.4,11h0c-0.6-0.1-1.1-0.3-1.4-0.5c-0.3-0.2-0.6-0.4-0.7-0.6
						c-0.1-0.3-0.2-0.6-0.3-0.9c0-0.4,0.1-0.9,0.3-1.2c0.2-0.4,0.5-0.6,0.9-0.9c0.4-0.2,0.9-0.3,1.4-0.3c0.4,0,0.8,0.1,1.2,0.2
						c0.3,0.1,0.6,0.2,0.9,0.4s0.5,0.3,0.6,0.5c0.1,0.1,0.1,0.2,0.1,0.3c0,0.1,0,0.1-0.1,0.2c-0.1,0.1-0.1,0.2-0.3,0.3l-0.3,0.3
						c-0.1,0.1-0.2,0.2-0.2,0.2c-0.1,0-0.1,0.1-0.1,0.1c-0.1,0-0.1,0-0.2-0.1c-0.1,0-0.1-0.1-0.2-0.1c-0.1,0-0.1-0.1-0.2-0.1
						c-0.5-0.3-0.9-0.4-1.2-0.4c-0.2,0-0.4,0.1-0.5,0.1C30.1,8.5,30,8.6,30,8.7c0,0.1,0.1,0.3,0.2,0.4c0.1,0.1,0.3,0.2,0.5,0.2
						c1,0.1,1.7,0.4,2.1,0.9c0.5,0.4,0.7,0.9,0.7,1.4c0,0.4-0.1,0.8-0.4,1.2c-0.2,0.4-0.6,0.7-1,0.9c-0.4,0.2-0.9,0.4-1.5,0.4
						c-0.9,0-1.8-0.3-2.7-0.9C27.7,12.9,27.5,12.7,27.5,12.5z"/>
					<path fill="#F9F9FA" d="M36.7,12.4l-2.3,0c-0.1,0-0.2-0.1-0.2-0.2l0-0.9c0-0.1,0-0.1,0.1-0.2c0-0.1,0.1-0.1,0.1-0.1h2.1
						c0.3,0,0.5-0.1,0.7-0.2c0.2-0.1,0.2-0.4,0.3-0.6c0-0.6-0.3-0.7-0.9-0.8l-2.2,0c-0.1,0-0.1,0-0.1-0.1c0-0.1-0.1-0.1-0.1-0.2
						l0-0.9c0-0.1,0-0.1,0.1-0.2c0,0,0.1-0.1,0.1-0.1l1,0c0.6,0,1,0,1.1,0c0.1,0,0.2,0,0.2,0c0.4,0,0.7,0.1,1,0.2
						c0.3,0.1,0.6,0.4,0.8,0.7c0.2,0.3,0.3,0.8,0.3,1.3c0,0.5-0.1,0.9-0.3,1.2c-0.2,0.3-0.5,0.6-0.8,0.7
						C37.5,12.4,37.1,12.5,36.7,12.4z"/>
					<path fill="#F9F9FA" d="M43.1,13.2c-0.1-0.5-0.2-0.8-0.5-0.9c-0.2-0.2-0.5-0.3-0.9-0.3c-0.1,0-0.1,0-0.2,0c-0.1,0-0.1,0-0.2,0
						l0,0v1.3c0,0.1,0,0.2,0,0.3c0,0.1-0.1,0.1-0.2,0.2c-0.1,0.1-0.3,0.1-0.5,0.1h-0.9c-0.2,0-0.4,0-0.5-0.1
						c-0.1-0.1-0.2-0.2-0.2-0.4l0-2.7V7.1c0-0.1,0.1-0.2,0.1-0.3c0.1-0.1,0.2-0.1,0.4-0.1h2.3c1,0,1.7,0.2,2.2,0.5
						c0.5,0.4,0.7,0.9,0.8,1.6c0,0.1,0,0.1,0,0.1c0,0,0,0.1,0,0.1v0.2c0,0.4-0.1,0.7-0.3,0.9c-0.2,0.2-0.4,0.4-0.7,0.6l0,0
						c0.3,0.2,0.6,0.4,0.8,0.7s0.3,0.6,0.4,0.9c0.1,0.3,0.1,0.6,0.1,0.9c0,0.1,0,0.2-0.1,0.3c-0.1,0.1-0.2,0.1-0.3,0.1h-1.2
						c-0.2,0-0.3,0-0.3-0.1c-0.1-0.1-0.1-0.2-0.1-0.3C43.1,13.3,43.1,13.2,43.1,13.2z M41.6,10c0.3,0,0.6-0.1,0.9-0.2
						c0.3-0.1,0.4-0.4,0.4-0.8c0-0.3-0.1-0.5-0.3-0.6c-0.2-0.1-0.4-0.2-0.7-0.2H41v0.1V10h0.1h0H41.6z"/>
					<path fill="#F9F9FA" d="M45.9,10.3c0-0.7,0.2-1.3,0.5-1.9c0.3-0.6,0.8-1,1.3-1.3c0.6-0.3,1.1-0.5,1.8-0.5c0.1,0,0.2,0,0.3,0
						c0.4,0,0.7,0.1,0.9,0.1l0.1,0c0.1,0,0.1,0,0.2,0.1c0,0.1,0.1,0.1,0.1,0.2c0,0.1,0,0.1,0,0.2l-0.4,0.9c-0.1,0.3-0.3,0.4-0.5,0.4
						c-0.6,0-1,0.1-1.3,0.3c-0.3,0.2-0.6,0.6-0.6,1c0,0.1-0.1,0.3-0.1,0.4c0,0.4,0.1,0.7,0.3,0.9c0.2,0.3,0.5,0.5,0.9,0.6
						c0.2,0,0.4,0.1,0.6,0.1c0.4,0,0.8-0.1,1-0.3c0.3-0.2,0.4-0.5,0.5-0.8h-0.6c-0.1,0-0.2,0-0.3-0.1c-0.1-0.1-0.1-0.2-0.1-0.3V9.1
						c0-0.1,0-0.2,0.1-0.3c0.1-0.1,0.1-0.1,0.3-0.1H53c0.1,0,0.2,0,0.3,0.1c0.1,0.1,0.1,0.2,0.1,0.3l0,0.7c0,0.1,0,0.2,0,0.4
						c0,0.2,0,0.4,0,0.6c-0.1,0.6-0.3,1.1-0.6,1.6c-0.4,0.5-0.8,0.9-1.3,1.1c-0.5,0.3-1.1,0.4-1.7,0.4c-0.6,0-1.3-0.2-1.9-0.5
						c-0.6-0.3-1.1-0.8-1.4-1.4C46,11.6,45.9,10.9,45.9,10.3z"/>
					<path fill="#F9F9FA" d="M56.4,8.6v0.8h2.8c0.1,0,0.2,0,0.3,0.1c0.1,0.1,0.1,0.2,0.1,0.3v0.9c0,0.1,0,0.2-0.1,0.3
						c-0.1,0.1-0.2,0.1-0.3,0.1h-2.8V12h3c0.1,0,0.2,0,0.3,0.1s0.1,0.2,0.1,0.3v0.9c0,0.1,0,0.2-0.1,0.3c-0.1,0.1-0.2,0.1-0.3,0.1
						h-4.7c-0.1,0-0.2,0-0.3-0.1c-0.1-0.1-0.1-0.2-0.1-0.3v0v-0.8V8.1V7.3c0-0.1,0-0.2,0.1-0.3c0.1-0.1,0.2-0.1,0.3-0.1h4.7
						c0.1,0,0.2,0,0.3,0.1s0.1,0.2,0.1,0.3v0.9c0,0.1,0,0.2-0.1,0.3s-0.2,0.1-0.3,0.1L56.4,8.6L56.4,8.6z"/>
					<path fill="#F9F9FA" d="M65,13.2c-0.1-0.5-0.2-0.8-0.5-0.9c-0.2-0.2-0.5-0.3-0.9-0.3c-0.1,0-0.1,0-0.2,0c-0.1,0-0.1,0-0.2,0
						l0,0v1.3c0,0.1,0,0.2,0,0.3c0,0.1-0.1,0.1-0.2,0.2c-0.1,0.1-0.3,0.1-0.5,0.1h-0.9c-0.2,0-0.4,0-0.5-0.1
						C61,13.6,61,13.5,61,13.3l0-2.7V7.1C61,7.1,61,7,61.1,6.9c0.1-0.1,0.2-0.1,0.4-0.1h2.3c1,0,1.7,0.2,2.2,0.5
						c0.5,0.4,0.7,0.9,0.8,1.6c0,0.1,0,0.1,0,0.1c0,0,0,0.1,0,0.1v0.2c0,0.4-0.1,0.7-0.3,0.9c-0.2,0.2-0.4,0.4-0.7,0.6l0,0
						c0.3,0.2,0.6,0.4,0.8,0.7c0.2,0.3,0.3,0.6,0.4,0.9c0.1,0.3,0.1,0.6,0.1,0.9c0,0.1,0,0.2-0.1,0.3c-0.1,0.1-0.2,0.1-0.3,0.1h-1.2
						c-0.2,0-0.3,0-0.3-0.1C65,13.6,65,13.5,65,13.4C65,13.3,65,13.2,65,13.2z M63.5,10c0.3,0,0.6-0.1,0.9-0.2
						c0.3-0.1,0.4-0.4,0.4-0.8c0-0.3-0.1-0.5-0.3-0.6c-0.2-0.1-0.4-0.2-0.7-0.2h-0.8v0.1V10H63h0H63.5z"/>
					<path fill="#F9F9FA" d="M69.7,13.3l0-3.1l-2.4-2.9c-0.1-0.1-0.1-0.1-0.1-0.2c0-0.1,0-0.1,0.1-0.2c0.1-0.1,0.1-0.1,0.2-0.1l2,0
						c0.1,0,0.1,0,0.2,0c0.1,0,0.1,0.1,0.1,0.1l1.1,1.4l1-1.4c0,0,0.1-0.1,0.1-0.1c0.1,0,0.1,0,0.2,0l2,0c0.1,0,0.2,0,0.2,0.1
						c0.1,0.1,0.1,0.1,0.1,0.2c0,0.1,0,0.1-0.1,0.2l-2.4,2.9l0,3.1c0,0.1,0,0.2-0.1,0.3c-0.1,0.1-0.2,0.1-0.3,0.1h-1.5
						c-0.1,0-0.2,0-0.3-0.1C69.7,13.6,69.7,13.5,69.7,13.3z"/>
					<path fill="#F9F9FA" d="M39.4,6c0-0.2,0.1-0.4,0.2-0.6c0.1-0.2,0.3-0.3,0.5-0.4s0.4-0.2,0.7-0.2s0.5,0.1,0.7,0.2
						C41.7,5,41.9,5.2,42,5.4c0.1,0.2,0.2,0.4,0.2,0.6c0,0.2-0.1,0.4-0.2,0.6c-0.1,0.2-0.3,0.3-0.5,0.4c-0.2,0.1-0.4,0.2-0.7,0.2
						S40.3,7.1,40.1,7s-0.4-0.3-0.5-0.4C39.5,6.4,39.4,6.2,39.4,6z M41.4,5.9c0-0.1,0-0.2-0.1-0.3c-0.1-0.1-0.1-0.1-0.2-0.2
						c-0.1-0.1-0.2-0.1-0.3-0.1c-0.1,0-0.2,0-0.3,0.1s-0.2,0.1-0.2,0.2c-0.1,0.1-0.1,0.2-0.1,0.3s0,0.2,0.1,0.3
						c0.1,0.1,0.1,0.1,0.2,0.2c0.1,0.1,0.2,0.1,0.3,0.1c0.1,0,0.2,0,0.3-0.1s0.2-0.1,0.2-0.2C41.4,6.1,41.4,6,41.4,5.9z"/>
					<path fill="#F9F9FA" d="M41.5,6c0-0.2,0.1-0.4,0.2-0.6c0.1-0.2,0.3-0.3,0.5-0.4s0.4-0.2,0.7-0.2c0.2,0,0.5,0.1,0.7,0.2
						s0.4,0.3,0.5,0.4c0.1,0.2,0.2,0.4,0.2,0.6c0,0.2-0.1,0.4-0.2,0.6c-0.1,0.2-0.3,0.3-0.5,0.4s-0.4,0.2-0.7,0.2
						c-0.2,0-0.5-0.1-0.7-0.2s-0.4-0.3-0.5-0.4C41.5,6.4,41.5,6.2,41.5,6z M43.4,5.9c0-0.1,0-0.2-0.1-0.3c-0.1-0.1-0.1-0.1-0.2-0.2
						c-0.1-0.1-0.2-0.1-0.3-0.1c-0.1,0-0.2,0-0.3,0.1s-0.2,0.1-0.2,0.2c-0.1,0.1-0.1,0.2-0.1,0.3s0,0.2,0.1,0.3
						c0.1,0.1,0.1,0.1,0.2,0.2c0.1,0.1,0.2,0.1,0.3,0.1c0.1,0,0.2,0,0.3-0.1s0.2-0.1,0.2-0.2C43.4,6.1,43.4,6,43.4,5.9z"/>
				</g>
				<line fill="#F9F9FA" x1="9.9" y1="9.1" x2="9.9" y2="9.1"/>
				<path fill="#F9F9FA" d="M9.9,9"/>
				<path fill="#F9F9FA" d="M9.9,9.1"/>
				<path fill="#F9F9FA" d="M15.3,7c-0.1-0.1-0.3-0.1-0.4-0.1h-0.2l0,0V7h-4.3V6.8h-0.2c-0.1,0-0.2,0-0.3,0.1C9.9,7,9.9,7.1,9.9,7.3
					v0v0.4v0v0.6v0.2v0.1v4.7c0,0.1,0,0.3,0.1,0.4c0.1,0.1,0.2,0.2,0.3,0.2h1.3c0.1,0,0.3-0.1,0.3-0.2c0.1-0.1,0.2-0.3,0.2-0.4v-2.1
					h2.7c0.1,0,0.2-0.1,0.3-0.1c0.1-0.1,0.1-0.2,0.1-0.3V9.9c0-0.1-0.1-0.3-0.1-0.3c-0.1-0.1-0.2-0.1-0.3-0.1h-2.7V8.5H15
					c0.1,0,0.3,0,0.4-0.1c0.1-0.1,0.1-0.2,0.1-0.3V7.3C15.5,7.1,15.4,7,15.3,7z M10.7,13.1h-0.6v-0.6h0.6V13.1z M10.7,12.2h-0.6
					v-0.6h0.6V12.2z M10.7,11.5h-0.6v-0.6h0.6V11.5z M10.7,10.6h-0.6V10h0.6V10.6z M10.7,9.8h-0.6V9.3h0.6V9.8z M10.7,8.9h-0.6V8.3
					h0.6V8.9z M10.7,8.1h-0.6V7.6h0.6V8.1z"/>
			</g>
		</g>
	</g>
</g>
</svg>
